<?xml version="1.0" encoding="UTF-8"?>
<svg version="1.1" xmlns="http://www.w3.org/2000/svg" width="125" height="120">
<path d="M0 0 C3.14550813 -0.11792821 6.29043541 -0.18781383 9.4375 -0.25 C10.31599609 -0.28351562 11.19449219 -0.31703125 12.09960938 -0.3515625 C18.29168955 -0.44295852 23.85088558 0.31056609 29 4 C31.82012192 7.69404632 32.35780851 10.32497823 32.2578125 14.921875 C32.24363281 16.02917969 32.22945313 17.13648438 32.21484375 18.27734375 C32.17037109 19.99630859 32.17037109 19.99630859 32.125 21.75 C32.08186066 24.03638505 32.04257842 26.3228473 32.0078125 28.609375 C31.98348145 29.61967773 31.95915039 30.62998047 31.93408203 31.67089844 C31.73207099 33.96101076 31.73207099 33.96101076 33 35 C33.12748673 38.31465503 33.21355313 41.24656535 32.3046875 44.453125 C31.74307001 47.05556307 31.74307001 47.05556307 33.25 49.28125 C33.8275 50.0134375 34.405 50.745625 35 51.5 C38.03092784 55.34278351 38.03092784 55.34278351 37.875 58.65625 C37 61 37 61 34 63 C33.41518879 65.88595946 33.41518879 65.88595946 33.3125 69.125 C33.24675781 70.22070312 33.18101563 71.31640625 33.11328125 72.4453125 C33.07589844 73.28835937 33.03851563 74.13140625 33 75 C32.06027344 75.18175781 32.06027344 75.18175781 31.1015625 75.3671875 C30.28429687 75.53476563 29.46703125 75.70234375 28.625 75.875 C27.81289062 76.03742188 27.00078125 76.19984375 26.1640625 76.3671875 C23.81326077 76.86658932 23.81326077 76.86658932 22 79 C22.75925781 79.65226562 23.51851563 80.30453125 24.30078125 80.9765625 C25.30512206 81.85888059 26.30900407 82.74172111 27.3125 83.625 C28.29863281 84.48351562 29.28476563 85.34203125 30.30078125 86.2265625 C34.73544184 90.78316021 36.43648631 94.78950904 36.5 101.125 C36.37005327 108.18273171 34.14796777 113.76027817 31 120 C29.02 119.505 29.02 119.505 27 119 C27.38414063 117.865625 27.76828125 116.73125 28.1640625 115.5625 C28.65212023 114.04201245 29.13903906 112.521159 29.625 111 C30.00785156 109.88431641 30.00785156 109.88431641 30.3984375 108.74609375 C32.17550191 103.06936023 32.06156674 99.61171463 30 94 C28.47506297 91.52805858 28.47506297 91.52805858 26.5625 89.625 C25.96566406 88.97789063 25.36882812 88.33078125 24.75390625 87.6640625 C22.89933818 85.80991064 22.89933818 85.80991064 20 84 C19.443125 84.639375 18.88625 85.27875 18.3125 85.9375 C15.63738873 88.32341005 14.55551181 88.83838583 11 89 C8.26574918 88.48573681 5.68031985 87.77229555 3 87 C4.07423514 92.50545507 6.78256797 95.03385549 10.83203125 98.58203125 C13.24276232 100.15877968 15.16562669 100.61911563 18 101 C17.814375 100.401875 17.62875 99.80375 17.4375 99.1875 C17 97 17 97 18 94 C20.0625 93.3125 20.0625 93.3125 22 93 C23.66227326 96.64117 24.2724556 99.50290369 24.25 103.5 C24.25773437 104.87671875 24.25773437 104.87671875 24.265625 106.28125 C23.98262598 109.1778282 23.20350245 111.36375653 22 114 C17.29477743 112.17019122 17.29477743 112.17019122 15.15209961 110.93310547 C12.52129046 109.79244154 10.67469217 109.83142029 7.81640625 109.9453125 C6.81198486 109.97262451 5.80756348 109.99993652 4.77270508 110.02807617 C3.7133374 110.06006104 2.65396973 110.0920459 1.5625 110.125 C-9.98817189 110.30864508 -19.02607338 109.27189259 -29 103 C-29 105.64 -29 108.28 -29 111 C-30.32 111 -31.64 111 -33 111 C-33 107.04 -33 103.08 -33 99 C-34.32 98.34 -35.64 97.68 -37 97 C-43.81860893 90.92863588 -49.16349915 81.96895764 -51 73 C-50.25234375 72.62488281 -49.5046875 72.24976562 -48.734375 71.86328125 C-39.78847079 67.21468966 -36.21344468 63.4796618 -33 54 C-43.22783612 57.24996662 -51.52915885 61.23305392 -58 70 C-58.99 69.67 -59.98 69.34 -61 69 C-60.37260248 63.35342234 -55.46051985 60.27103012 -51.3125 56.9375 C-44.45110894 51.97285712 -37.54043829 50.01215391 -29.25 48.6875 C-13.97387084 46.17610798 -3.34209208 38.42968886 6.01953125 26.40625 C9.80335652 21.80893961 14.09257022 17.51472559 20 16 C25.36842105 15.68421053 25.36842105 15.68421053 28 17 C27.9175 15.741875 27.835 14.48375 27.75 13.1875 C27.70359375 12.47980469 27.6571875 11.77210937 27.609375 11.04296875 C26.76199573 8.20207542 25.53908131 7.46653834 23 6 C15.6078294 3.83584479 7.64970248 3.50731011 0 3 C0 2.01 0 1.02 0 0 Z M6 31.875 C5.50677246 32.35614258 5.01354492 32.83728516 4.50537109 33.33300781 C1.83230735 36.182889 0.68682785 38.27301804 0.6484375 42.109375 C1.4519071 51.00110523 3.58724349 57.71412673 9 65 C9.99 65.66 10.98 66.32 12 67 C12.825 66.2575 13.65 65.515 14.5 64.75 C20.73326354 59.61414201 25.89674421 57.42119602 34 58 C33.20994338 56.56161448 32.41788955 55.12432585 31.625 53.6875 C31.18414062 52.88699219 30.74328125 52.08648437 30.2890625 51.26171875 C29.26486665 49.46472057 28.14732862 47.72099292 27 46 C27.3830153 43.03163146 28.59583294 40.62111184 30 38 C29.34 37.34 28.68 36.68 28 36 C27.61127707 32.39547828 27.49218475 28.80930789 27.34375 25.1875 C27.32728393 21.90914165 27.32728393 21.90914165 25 20 C16.83134577 19.0953282 11.26818837 26.47599883 6 31.875 Z M-5 43 C-6.61873898 50.4763792 -7.83294386 58.48493019 -6 66 C-5.95875 66.886875 -5.9175 67.77375 -5.875 68.6875 C-5.13777565 71.42569142 -5.13777565 71.42569142 -1.5 72.75 C-0.345 73.1625 0.81 73.575 2 74 C3.96822886 75.96822886 3.66248381 79.34808709 4 82 C7.17218843 78.37464179 8.42902597 74.48849722 10 70 C8.9171875 69.0409375 8.9171875 69.0409375 7.8125 68.0625 C1.02523654 61.15954455 -0.93243898 53.41684422 -2 44 C-2.99 43.67 -3.98 43.34 -5 43 Z M-17 50 C-17 51.65 -17 53.3 -17 55 C-16.34 54.34 -15.68 53.68 -15 53 C-15 52.01 -15 51.02 -15 50 C-15.66 50 -16.32 50 -17 50 Z M-29 53 C-29.19522373 55.58296017 -29.38144403 58.16604079 -29.5625 60.75 C-29.61857422 61.47960938 -29.67464844 62.20921875 -29.73242188 62.9609375 C-30.07119803 67.92965447 -29.55242404 71.34272787 -28 76 C-28.99 76.33 -29.98 76.66 -31 77 C-30.175 77.53625 -29.35 78.0725 -28.5 78.625 C-26 81 -26 81 -25.5 84.125 C-25.665 85.07375 -25.83 86.0225 -26 87 C-26.99 87.66 -27.98 88.32 -29 89 C-29.89961201 92.1149831 -29.82894788 94.8738371 -29 98 C-26.72528469 100.52129692 -24.10084615 101.69948065 -21 103 C-19.948125 103.47759766 -19.948125 103.47759766 -18.875 103.96484375 C-10.62157502 107.07420698 -1.66982646 106.2549949 7 106 C3.44445701 103.1182655 -0.17915112 100.52013437 -4 98 C-4.639375 97.505 -5.27875 97.01 -5.9375 96.5 C-8.15992823 94.800913 -8.15992823 94.800913 -11.5625 93.1875 C-15.2667092 91.06513121 -16.6881016 89.1672067 -18 85 C-18.62542133 78.89709828 -17.83663346 73.85426914 -16 68 C-15.83071457 65.20755955 -15.83071457 65.20755955 -16 63 C-16.94875 62.835 -17.8975 62.67 -18.875 62.5 C-22 61 -22 61 -22.84375 59.0859375 C-23.32618625 57.07815136 -23.67119562 55.03858716 -24 53 C-25.65 53 -27.3 53 -29 53 Z M18 66 C12.66882152 70.95038002 10.54934496 77.29576518 8 84 C10.35367713 84.6878236 10.35367713 84.6878236 13 85 C16.14304267 82.90463822 16.47265264 82.34787914 17.8125 79.0625 C19.32348827 75.86684666 19.89422061 75.06831585 23 73.0625 C25.33510322 72.23548428 27.56955647 71.46739299 30 71 C30 68.69 30 66.38 30 64 C25.37497966 62.45832655 22.02119355 63.49833581 18 66 Z M-32 82 C-32 83.32 -32 84.64 -32 86 C-31.01 85.67 -30.02 85.34 -29 85 C-29.33 84.01 -29.66 83.02 -30 82 C-30.66 82 -31.32 82 -32 82 Z M3 82 C4 84 4 84 4 84 Z " fill="#8D4D3D" transform="translate(61,0)"/>
<path d="M0 0 C1.99954746 -0.04254356 4.00041636 -0.04080783 6 0 C7 1 7 1 7.0625 3.5625 C7.041875 4.366875 7.02125 5.17125 7 6 C7.66 5.67 8.32 5.34 9 5 C20.3209267 4.0520319 20.3209267 4.0520319 25 8 C25.53238281 8.37125 26.06476562 8.7425 26.61328125 9.125 C28.7833846 12.05922425 28.31476199 15.19268986 28.1875 18.6875 C28.16719727 19.7403418 28.16719727 19.7403418 28.14648438 20.81445312 C28.11120182 22.54329829 28.05739583 24.27174765 28 26 C26.42466914 26.86883706 24.83935491 27.71959068 23.25 28.5625 C22.36828125 29.03816406 21.4865625 29.51382812 20.578125 30.00390625 C17.79298812 31.07998186 16.73019786 31.06528748 14 30 C13.4225 30.94875 12.845 31.8975 12.25 32.875 C9.2741321 37.00814986 7.59097433 37.66979778 2.6875 38.6875 C-1.57132128 40.20335164 -3.41155106 42.09774715 -6.32421875 45.44140625 C-8.23475366 47.21833732 -9.43087971 47.68276045 -12 48 C-14.1875 47.25 -14.1875 47.25 -16 46 C-16.495 44.515 -16.495 44.515 -17 43 C-16.505 42.505 -16.505 42.505 -16 42 C-19.41804659 38.15469758 -22.50588961 36.03378384 -27.23046875 33.9921875 C-29 33 -29 33 -31 30 C-31.484375 27.4765625 -31.484375 27.4765625 -31.75 24.625 C-31.84796875 23.68914063 -31.9459375 22.75328125 -32.046875 21.7890625 C-31.96524322 16.93197165 -29.78801779 13.36840727 -27.1875 9.375 C-26.70667969 8.61960937 -26.22585937 7.86421875 -25.73046875 7.0859375 C-23.14988845 3.97526058 -20.94669912 2.20567252 -16.81860352 1.76953125 C-14.26772206 1.70480475 -11.73803524 1.73832336 -9.1875 1.8125 C-7.86202148 1.83280273 -7.86202148 1.83280273 -6.50976562 1.85351562 C-4.33957977 1.88870783 -2.16970967 1.94251015 0 2 C0 1.34 0 0.68 0 0 Z M-21 8 C-23.30671915 10.71549154 -23.30671915 10.71549154 -22.625 13.1875 C-22.41875 13.785625 -22.2125 14.38375 -22 15 C-22.99 15.33 -23.98 15.66 -25 16 C-22.36 16 -19.72 16 -17 16 C-16.34 14.35 -15.68 12.7 -15 11 C-14.34 11 -13.68 11 -13 11 C-12.67 12.98 -12.34 14.96 -12 17 C-10.02 16.67 -8.04 16.34 -6 16 C-6.33 16.99 -6.66 17.98 -7 19 C-8.02480469 18.96519531 -9.04960937 18.93039063 -10.10546875 18.89453125 C-11.46612936 18.86637965 -12.8268078 18.83908096 -14.1875 18.8125 C-15.19780273 18.77479492 -15.19780273 18.77479492 -16.22851562 18.73632812 C-20.69943492 18.67090004 -23.44972299 19.25204548 -27 22 C-28.16666667 23.83333333 -28.16666667 23.83333333 -28 26 C-26.79031105 28.7667506 -26.79031105 28.7667506 -25 31 C-24.34 31 -23.68 31 -23 31 C-22.01 28.36 -21.02 25.72 -20 23 C-19.01 23.99 -18.02 24.98 -17 26 C-14.96658113 26.77813652 -14.96658113 26.77813652 -12.8125 27.1875 C-11.554375 27.455625 -10.29625 27.72375 -9 28 C-9 27.01 -9 26.02 -9 25 C-7.68 24.34 -6.36 23.68 -5 23 C-5 22.01 -5 21.02 -5 20 C-4.01 20 -3.02 20 -2 20 C-2 18.68 -2 17.36 -2 16 C-0.22694336 16.25587405 1.54344608 16.53027739 3.3125 16.8125 C4.29863281 16.96332031 5.28476562 17.11414062 6.30078125 17.26953125 C10.49487632 18.40454685 11.63522633 20.4528395 14 24 C14.5775 23.79375 15.155 23.5875 15.75 23.375 C18.53879535 22.91020077 19.56469167 23.70116889 22 25 C22.66 24.67 23.32 24.34 24 24 C24 22.68 24 21.36 24 20 C22.88625 19.87625 21.7725 19.7525 20.625 19.625 C17 19 17 19 15 17 C13.7315625 16.566875 13.7315625 16.566875 12.4375 16.125 C11.633125 15.75375 10.82875 15.3825 10 15 C9.34765625 12.9296875 9.34765625 12.9296875 9 11 C7.37536158 10.94604522 5.75021459 10.90722805 4.125 10.875 C3.22007813 10.85179687 2.31515625 10.82859375 1.3828125 10.8046875 C-1.18806994 10.75675164 -1.18806994 10.75675164 -3 13 C-5.625 13.125 -5.625 13.125 -8 13 C-8.042721 11.33388095 -8.04063832 9.66617115 -8 8 C-7 7 -7 7 -4.6875 6.875 C-2.28967362 6.98652681 -0.29105488 7.32116892 2 8 C1.34 7.67 0.68 7.34 0 7 C0 6.34 0 5.68 0 5 C-10.96654764 4.33881938 -10.96654764 4.33881938 -21 8 Z M15 9 C15.99 9.495 15.99 9.495 17 10 C17 11.65 17 13.3 17 15 C18.32 15.33 19.64 15.66 21 16 C20.3045656 12.99615946 20.3045656 12.99615946 19 10 C16.96756452 9.03122943 16.96756452 9.03122943 15 9 Z M-1 20 C-1 20.99 -1 21.98 -1 23 C-0.05125 23.391875 0.8975 23.78375 1.875 24.1875 C5.34127338 26.19793856 5.9802693 27.22699642 7 31 C5.68 31 4.36 31 3 31 C2.7525 30.360625 2.505 29.72125 2.25 29.0625 C1.1905037 26.90088496 1.1905037 26.90088496 -0.75 26.125 C-3.82030146 25.9544277 -6.15840374 26.90211053 -9 28 C-6.2323642 31.07515089 -4.04409984 32.96546283 0 34 C3.62649951 34.08916154 3.62649951 34.08916154 7 33 C9.61721762 30.13741823 10.02696888 28.68770638 9.875 24.8125 C9.22994813 21.69851109 9.22994813 21.69851109 6 20 C3.66800612 19.92094936 1.33167378 19.91201231 -1 20 Z M-19 29 C-19 29.66 -19 30.32 -19 31 C-19.99 31.495 -19.99 31.495 -21 32 C-18.03 32.495 -18.03 32.495 -15 33 C-14.67 33.99 -14.34 34.98 -14 36 C-14.99 36.495 -14.99 36.495 -16 37 C-14.68 37.33 -13.36 37.66 -12 38 C-11.23043864 35.65466049 -11.23043864 35.65466049 -11 33 C-12.61989028 30.48017068 -13.77882791 30.05657891 -16.6875 29.3125 C-17.450625 29.209375 -18.21375 29.10625 -19 29 Z M-7 35 C-6.67 36.32 -6.34 37.64 -6 39 C-5.34 38.01 -4.68 37.02 -4 36 C-4.99 35.67 -5.98 35.34 -7 35 Z " fill="#1E3F3C" transform="translate(34,0)"/>
<path d="M0 0 C0.33 0 0.66 0 1 0 C1.13277344 0.88042969 1.26554687 1.76085938 1.40234375 2.66796875 C1.57894531 3.82941406 1.75554688 4.99085937 1.9375 6.1875 C2.11152344 7.33605469 2.28554688 8.48460937 2.46484375 9.66796875 C2.91379313 12.46325212 3.42082162 15.22933586 4 18 C4.763125 18.103125 5.52625 18.20625 6.3125 18.3125 C9.29740522 19.07608041 10.35674426 19.40538567 12 22 C12.25 25.625 12.25 25.625 12 29 C11.67 29.33 11.34 29.66 11 30 C10.71917563 34.08950491 11.07604793 37.67616545 13.453125 41.08203125 C16.58394194 44.31494004 19.54332862 46.88583215 24 48 C24.99 48 25.98 48 27 48 C27 49.98 27 51.96 27 54 C22.797781 52.48122047 19.17304641 50.40681141 15.375 48.0625 C14.80265625 47.71509766 14.2303125 47.36769531 13.640625 47.00976562 C7.92091531 43.47817743 7.92091531 43.47817743 6 41 C5.3125 37.3125 5.3125 37.3125 5 34 C4.01 33.67 3.02 33.34 2 33 C1.67 34.32 1.34 35.64 1 37 C-1.65809991 36.63336553 -2.77524006 36.24578016 -4.61328125 34.23583984 C-7.44957693 29.66281241 -6.44312877 24.21639749 -5.42578125 19.12792969 C-4.68161537 16.18768697 -3.86186482 13.28282318 -3 10.375 C-2.71382812 9.37082031 -2.42765625 8.36664063 -2.1328125 7.33203125 C-1.43349069 4.88440492 -0.72246325 2.4408754 0 0 Z " fill="#D5735B" transform="translate(53,53)"/>
<path d="M0 0 C5.61589298 -0.29047722 9.09825932 -0.10842092 14 3 C15.97646994 6.95293987 15.42344817 11.69079214 15 16 C13.5625 19.0625 13.5625 19.0625 11 21 C9.59373385 21.32048502 8.17445297 21.58616205 6.75 21.8125 C1.54834167 22.66944536 -0.81418484 25.32545958 -4.17578125 29.22265625 C-6.16902049 31.16467735 -7.26147694 31.70257844 -10 32 C-12.1875 31.25 -12.1875 31.25 -14 30 C-14.33 29.01 -14.66 28.02 -15 27 C-14.01 27 -13.02 27 -12 27 C-12.33 27.66 -12.66 28.32 -13 29 C-9.86615486 27.49540371 -9.86615486 27.49540371 -7 25 C-6.49874717 21.33142278 -6.49874717 21.33142278 -7 18 C-7.99 18.66 -8.98 19.32 -10 20 C-10 18.68 -10 17.36 -10 16 C-12.31 15.01 -14.62 14.02 -17 13 C-17 13.66 -17 14.32 -17 15 C-15.68 15.66 -14.36 16.32 -13 17 C-15.31 17 -17.62 17 -20 17 C-21.15837626 12.94568308 -20.83691257 10.78187881 -19 7 C-18.01 7 -17.02 7 -16 7 C-15.67 7.66 -15.34 8.32 -15 9 C-12.6859378 9.73075648 -10.35171131 10.40138258 -8 11 C-7.67 10.01 -7.34 9.02 -7 8 C-6.01 7.67 -5.02 7.34 -4 7 C-3.67 6.01 -3.34 5.02 -3 4 C-2.01 4 -1.02 4 0 4 C0 2.68 0 1.36 0 0 Z M1 4 C1 4.99 1 5.98 1 7 C1.94875 7.391875 2.8975 7.78375 3.875 8.1875 C7.34127338 10.19793856 7.9802693 11.22699642 9 15 C7.68 15 6.36 15 5 15 C4.7525 14.360625 4.505 13.72125 4.25 13.0625 C3.1905037 10.90088496 3.1905037 10.90088496 1.25 10.125 C-1.82030146 9.9544277 -4.15840374 10.90211053 -7 12 C-4.2323642 15.07515089 -2.04409984 16.96546283 2 18 C5.62649951 18.08916154 5.62649951 18.08916154 9 17 C11.61721762 14.13741823 12.02696888 12.68770638 11.875 8.8125 C11.22994813 5.69851109 11.22994813 5.69851109 8 4 C5.66800612 3.92094936 3.33167378 3.91201231 1 4 Z M-5 19 C-4.67 20.32 -4.34 21.64 -4 23 C-3.34 22.01 -2.68 21.02 -2 20 C-2.99 19.67 -3.98 19.34 -5 19 Z " fill="#2B5652" transform="translate(32,16)"/>
<path d="M0 0 C1.32 0.33 2.64 0.66 4 1 C4 9.58 4 18.16 4 27 C2.68 27.33 1.36 27.66 0 28 C-0.66 26.02 -1.32 24.04 -2 22 C-3.32 22 -4.64 22 -6 22 C-6 18.7 -6 15.4 -6 12 C-6.66 12 -7.32 12 -8 12 C-8 15.96 -8 19.92 -8 24 C-9.32 24 -10.64 24 -12 24 C-12 21.69 -12 19.38 -12 17 C-12.66 17 -13.32 17 -14 17 C-14 17.66 -14 18.32 -14 19 C-15.32 19 -16.64 19 -18 19 C-18.33 18.34 -18.66 17.68 -19 17 C-21.02463255 16.34786708 -21.02463255 16.34786708 -23 16 C-22.67 14.35 -22.34 12.7 -22 11 C-21.01 11 -20.02 11 -19 11 C-18.34 10.01 -17.68 9.02 -17 8 C-16.01 8 -15.02 8 -14 8 C-13.67 8.66 -13.34 9.32 -13 10 C-12.34 7.69 -11.68 5.38 -11 3 C-10.01 3 -9.02 3 -8 3 C-8 4.65 -8 6.3 -8 8 C-7.34 8 -6.68 8 -6 8 C-6 7.34 -6 6.68 -6 6 C-4.68 6 -3.36 6 -2 6 C-1.34 4.02 -0.68 2.04 0 0 Z " fill="#224643" transform="translate(116,68)"/>
<path d="M0 0 C0.33 0.99 0.66 1.98 1 3 C0.67 3.66 0.34 4.32 0 5 C-0.22858114 7.0374763 -0.41024278 9.08040303 -0.5625 11.125 C-0.64628906 12.22070312 -0.73007813 13.31640625 -0.81640625 14.4453125 C-0.90728516 15.70988281 -0.90728516 15.70988281 -1 17 C-1.62648438 17.12117188 -2.25296875 17.24234375 -2.8984375 17.3671875 C-3.71570313 17.53476563 -4.53296875 17.70234375 -5.375 17.875 C-6.59316406 18.11863281 -6.59316406 18.11863281 -7.8359375 18.3671875 C-10.18673923 18.86658932 -10.18673923 18.86658932 -12 21 C-11.24074219 21.65226562 -10.48148438 22.30453125 -9.69921875 22.9765625 C-8.69487794 23.85888059 -7.69099593 24.74172111 -6.6875 25.625 C-5.70136719 26.48351562 -4.71523437 27.34203125 -3.69921875 28.2265625 C0.73544184 32.78316021 2.43648631 36.78950904 2.5 43.125 C2.37005327 50.18273171 0.14796777 55.76027817 -3 62 C-4.32 61.67 -5.64 61.34 -7 61 C-6.42378906 59.2984375 -6.42378906 59.2984375 -5.8359375 57.5625 C-5.34787977 56.04201245 -4.86096094 54.521159 -4.375 53 C-3.99214844 51.88431641 -3.99214844 51.88431641 -3.6015625 50.74609375 C-1.82449809 45.06936023 -1.93843326 41.61171463 -4 36 C-5.52493703 33.52805858 -5.52493703 33.52805858 -7.4375 31.625 C-8.03433594 30.97789063 -8.63117188 30.33078125 -9.24609375 29.6640625 C-11.10066182 27.80991064 -11.10066182 27.80991064 -14 26 C-14.66 26.99 -15.32 27.98 -16 29 C-18.6015625 29.29296875 -18.6015625 29.29296875 -21.625 29.1875 C-23.12933594 29.14689453 -23.12933594 29.14689453 -24.6640625 29.10546875 C-25.43492188 29.07066406 -26.20578125 29.03585938 -27 29 C-27 28.34 -27 27.68 -27 27 C-25.14375 26.7525 -25.14375 26.7525 -23.25 26.5 C-20.53850591 25.84599526 -19.35044859 25.49468811 -17.71875 23.19140625 C-17.07320179 21.772762 -16.44934264 20.34404605 -15.84765625 18.90625 C-14.68873512 16.30001262 -13.56193706 15.24436943 -11 14 C-7.25 13.3125 -7.25 13.3125 -4 13 C-4.33 10.03 -4.66 7.06 -5 4 C-7.31 4 -9.62 4 -12 4 C-9.08493545 2.05662363 -8.17028308 1.72325333 -4.875 1.4375 C-1.22536034 1.43313101 -1.22536034 1.43313101 0 0 Z " fill="#A85A48" transform="translate(95,58)"/>
<path d="M0 0 C0.66 0.33 1.32 0.66 2 1 C1.67 1.66 1.34 2.32 1 3 C1.66 3 2.32 3 3 3 C3 6.96 3 10.92 3 15 C2.67 15 2.34 15 2 15 C1.67 12.36 1.34 9.72 1 7 C0.34 7 -0.32 7 -1 7 C-1.33 11.29 -1.66 15.58 -2 20 C-2.66 20 -3.32 20 -4 20 C-8.89462811 33.76370908 -8.89462811 33.76370908 -9 48 C-7.14359078 51.0328546 -6.44837868 51.85054044 -3 53 C-2.67 51.35 -2.34 49.7 -2 48 C-0.0625 48.5625 -0.0625 48.5625 2 50 C2.144375 51.11375 2.28875 52.2275 2.4375 53.375 C2.6270213 57.04390062 2.6270213 57.04390062 5.046875 58.9296875 C8.54273146 61.38048634 12.13310281 63.58813409 15.8125 65.75 C16.85180664 66.36681641 16.85180664 66.36681641 17.91210938 66.99609375 C19.6060669 68.0007858 21.30275696 69.00086825 23 70 C22.84402344 69.31292969 22.68804687 68.62585938 22.52734375 67.91796875 C22.33269531 67.01691406 22.13804688 66.11585937 21.9375 65.1875 C21.74027344 64.29417969 21.54304688 63.40085938 21.33984375 62.48046875 C21 60 21 60 22 57 C22.66 57 23.32 57 24 57 C24.93619813 60.15506142 25.1057123 62.96586502 25.0625 66.25 C25.05347656 67.14203125 25.04445312 68.0340625 25.03515625 68.953125 C25.02355469 69.62859375 25.01195312 70.3040625 25 71 C22 72 22 72 19.08203125 70.56640625 C18.00308594 69.90511719 16.92414063 69.24382812 15.8125 68.5625 C14.72582031 67.90378906 13.63914062 67.24507813 12.51953125 66.56640625 C11.68808594 66.04949219 10.85664062 65.53257813 10 65 C9.67 65.66 9.34 66.32 9 67 C4.65590528 65.6424704 1.59379525 63.26893883 -1.94140625 60.515625 C-3.84454753 59.11445078 -5.730282 57.98434236 -7.8125 56.875 C-11.96925757 54.42984849 -13.4939959 52.5180123 -15 48 C-15.06802967 46.27204648 -15.08495645 44.54164635 -15.0625 42.8125 C-15.05347656 41.91144531 -15.04445312 41.01039062 -15.03515625 40.08203125 C-15.02355469 39.39496094 -15.01195312 38.70789063 -15 38 C-14.67 38 -14.34 38 -14 38 C-13.67 40.64 -13.34 43.28 -13 46 C-12.65388672 44.36417969 -12.65388672 44.36417969 -12.30078125 42.6953125 C-10.35413677 33.64806982 -8.19665864 24.71813483 -5.57543945 15.84033203 C-4.57161793 12.38031796 -4 9.63682225 -4 6 C-4.66 5.67 -5.32 5.34 -6 5 C-4.02 3.35 -2.04 1.7 0 0 Z " fill="#884B3D" transform="translate(57,37)"/>
<path d="M0 0 C-0.58693942 7.67912404 -2.40477767 14.72861275 -4.5 22.125 C-7.32166083 31.94537188 -7.32166083 31.94537188 -9 42 C-9.66 41.67 -10.32 41.34 -11 41 C-11.21133202 33.95559921 -11.07965362 27.75887425 -9 21 C-9.598125 20.896875 -10.19625 20.79375 -10.8125 20.6875 C-13.38185979 19.87998692 -14.39251193 19.15141153 -16 17 C-16.51171875 14.73828125 -16.51171875 14.73828125 -16.6875 12.3125 C-16.75324219 11.50425781 -16.81898437 10.69601563 -16.88671875 9.86328125 C-16.92410156 9.24839844 -16.96148437 8.63351563 -17 8 C-15.35 7.34 -13.7 6.68 -12 6 C-12.226875 7.258125 -12.45375 8.51625 -12.6875 9.8125 C-13.20193197 13.14138709 -13.20193197 13.14138709 -11.5625 16 C-11.046875 16.33 -10.53125 16.66 -10 17 C-10.66 16.01 -11.32 15.02 -12 14 C-11.625 11.8125 -11.625 11.8125 -11 10 C-11 10.99 -11 11.98 -11 13 C-10.34 13 -9.68 13 -9 13 C-9 12.34 -9 11.68 -9 11 C-8.34 11 -7.68 11 -7 11 C-7 9.68 -7 8.36 -7 7 C-8.32 6.67 -9.64 6.34 -11 6 C-8.07713121 2.62745909 -4.7157117 0 0 0 Z " fill="#9D5442" transform="translate(54,42)"/>
<path d="M0 0 C0.66 0.66 1.32 1.32 2 2 C-0.04698414 4.04698414 -4.30411241 3.70045693 -7 4 C-5.68 4.66 -4.36 5.32 -3 6 C-3.99580078 6.22042969 -3.99580078 6.22042969 -5.01171875 6.4453125 C-9.92691674 7.69384454 -13.83306332 8.69047698 -16.90234375 13.046875 C-19.24423487 17.21394106 -21.44666989 21.47315225 -23 26 C-22.67 26.66 -22.34 27.32 -22 28 C-22.99 28 -23.98 28 -25 28 C-25 28.66 -25 29.32 -25 30 C-22.03 30 -19.06 30 -16 30 C-20.18075081 32.0903754 -20.58813263 32.22667078 -24.75 31.125 C-25.54921875 30.92132813 -26.3484375 30.71765625 -27.171875 30.5078125 C-27.77515625 30.34023437 -28.3784375 30.17265625 -29 30 C-29.6875 28.1875 -29.6875 28.1875 -30 26 C-28.69921875 24.54296875 -28.69921875 24.54296875 -27 23 C-25.7951851 20.73972655 -25.7951851 20.73972655 -24.8125 18.3125 C-24.46832031 17.50425781 -24.12414062 16.69601563 -23.76953125 15.86328125 C-23.51558594 15.24839844 -23.26164062 14.63351563 -23 14 C-23.99 13.01 -24.98 12.02 -26 11 C-25.67 10.34 -25.34 9.68 -25 9 C-23.68 9.99 -22.36 10.98 -21 12 C-20.773125 11.4225 -20.54625 10.845 -20.3125 10.25 C-16.50597893 3.72453531 -7.5077879 -1.07254113 0 0 Z " fill="#96503F" transform="translate(93,57)"/>
<path d="M0 0 C0.28875 0.61875 0.5775 1.2375 0.875 1.875 C1.93720042 4.13325765 1.93720042 4.13325765 4 6 C4 8 4 10 4 12 C3.05125 12.45375 2.1025 12.9075 1.125 13.375 C-2.00313679 14.80238254 -2.00313679 14.80238254 -4 17 C-4.49329585 21.26472726 -4.49329585 21.26472726 -2.5 24.875 C-2.005 25.24625 -1.51 25.6175 -1 26 C-1.33 26.99 -1.66 27.98 -2 29 C-13 17.10393258 -13 17.10393258 -13 11 C-11.42578125 9.82421875 -11.42578125 9.82421875 -9.3125 8.6875 C-5.21901187 6.30266145 -2.8162746 3.784369 0 0 Z " fill="#D7745B" transform="translate(29,64)"/>
<path d="M0 0 C3 0.25 3 0.25 5 2.25 C5.25 5.25 5.25 5.25 5 8.25 C4.34 8.91 3.68 9.57 3 10.25 C2.01 10.25 1.02 10.25 0 10.25 C0 17.18 0 24.11 0 31.25 C-0.66 31.25 -1.32 31.25 -2 31.25 C-2 27.62 -2 23.99 -2 20.25 C-3.32 19.92 -4.64 19.59 -6 19.25 C-10.15215091 15.64418473 -12.69219043 11.61201925 -14 6.25 C-10.55571735 7.69781793 -8.63869038 9.52694609 -6.25 12.375 C-5.63640625 13.09945312 -5.0228125 13.82390625 -4.390625 14.5703125 C-3.70226562 15.40175781 -3.70226562 15.40175781 -3 16.25 C-2.74951364 13.37549017 -2.74951364 13.37549017 -3 10.25 C-3.515625 9.734375 -4.03125 9.21875 -4.5625 8.6875 C-5.036875 8.213125 -5.51125 7.73875 -6 7.25 C-5.66963219 2.73497322 -4.81520347 0.40126696 0 0 Z M-2 3.25 C-2 4.57 -2 5.89 -2 7.25 C-1.01 6.92 -0.02 6.59 1 6.25 C0.67 5.26 0.34 4.27 0 3.25 C-0.66 3.25 -1.32 3.25 -2 3.25 Z " fill="#C16954" transform="translate(31,78.75)"/>
<path d="M0 0 C0.66 0 1.32 0 2 0 C2.144375 1.03125 2.28875 2.0625 2.4375 3.125 C2.623125 4.40375 2.80875 5.6825 3 7 C3.103125 8.0725 3.20625 9.145 3.3125 10.25 C3.78825799 13.02909886 3.78825799 13.02909886 5.5625 14.8125 C9.03087071 16.50221906 12.15981482 16.67998457 16 17 C16 18.32 16 19.64 16 21 C16.66 21 17.32 21 18 21 C18.66 19.68 19.32 18.36 20 17 C20.66 17.33 21.32 17.66 22 18 C22.3125 21.25 22.3125 21.25 22 25 C19.625 27.4375 19.625 27.4375 17 29 C16.34 29 15.68 29 15 29 C15.33 27.68 15.66 26.36 16 25 C15.21625 24.896875 14.4325 24.79375 13.625 24.6875 C11 24 11 24 9 21 C7.08623041 19.82065192 7.08623041 19.82065192 4.9375 18.875 C1.07118644 17.07118644 1.07118644 17.07118644 0 16 C-0.07319621 13.30345146 -0.09242537 10.63308542 -0.0625 7.9375 C-0.05798828 7.17888672 -0.05347656 6.42027344 -0.04882812 5.63867188 C-0.0370068 3.75908129 -0.01907078 1.87953101 0 0 Z " fill="#346F69" transform="translate(4,16)"/>
<path d="M0 0 C0.66 0.33 1.32 0.66 2 1 C1.67 1.66 1.34 2.32 1 3 C1.66 3 2.32 3 3 3 C3 6.96 3 10.92 3 15 C2.67 15 2.34 15 2 15 C1.67 12.36 1.34 9.72 1 7 C0.34 7 -0.32 7 -1 7 C-1.33 11.29 -1.66 15.58 -2 20 C-2.66 20 -3.32 20 -4 20 C-8.89462811 33.76370908 -8.89462811 33.76370908 -9 48 C-7.14359078 51.0328546 -6.44837868 51.85054044 -3 53 C-2.67 51.35 -2.34 49.7 -2 48 C-1.34 48.33 -0.68 48.66 0 49 C-0.66 50.98 -1.32 52.96 -2 55 C-5.67420866 54.69381595 -6.78135513 54.24228216 -9.3125 51.4375 C-9.869375 50.633125 -10.42625 49.82875 -11 49 C-11 50.65 -11 52.3 -11 54 C-13.2477975 51.94766315 -14.0022242 50.99332739 -15 48 C-15.06802967 46.27204648 -15.08495645 44.54164635 -15.0625 42.8125 C-15.05347656 41.91144531 -15.04445312 41.01039062 -15.03515625 40.08203125 C-15.02355469 39.39496094 -15.01195312 38.70789063 -15 38 C-14.67 38 -14.34 38 -14 38 C-13.67 40.64 -13.34 43.28 -13 46 C-12.65388672 44.36417969 -12.65388672 44.36417969 -12.30078125 42.6953125 C-10.35413677 33.64806982 -8.19665864 24.71813483 -5.57543945 15.84033203 C-4.57161793 12.38031796 -4 9.63682225 -4 6 C-4.66 5.67 -5.32 5.34 -6 5 C-4.02 3.35 -2.04 1.7 0 0 Z " fill="#49271F" transform="translate(57,37)"/>
<path d="M0 0 C0.4125 0.4640625 0.825 0.928125 1.25 1.40625 C3.15502022 3.14117913 4.5645751 3.72509208 7 4.5 C10.09731415 5.48550905 11.83158328 6.56053119 14 9 C13.34 9 12.68 9 12 9 C12.33 9.598125 12.66 10.19625 13 10.8125 C14 13 14 13 14 16 C14.99 15.34 15.98 14.68 17 14 C16.690625 14.7425 16.38125 15.485 16.0625 16.25 C14.95577631 18.85159414 14.95577631 18.85159414 14.625 21.125 C14 23 14 23 12.3125 24.875 C10 26 10 26 6.8125 25.375 C5.884375 24.92125 4.95625 24.4675 4 24 C3.67 23.01 3.34 22.02 3 21 C3.99 21 4.98 21 6 21 C5.67 21.66 5.34 22.32 5 23 C8.13384514 21.49540371 8.13384514 21.49540371 11 19 C11.50125283 15.33142278 11.50125283 15.33142278 11 12 C10.01 12.66 9.02 13.32 8 14 C8 12.68 8 11.36 8 10 C5.69 9.01 3.38 8.02 1 7 C1 7.66 1 8.32 1 9 C2.32 9.66 3.64 10.32 5 11 C2.69 11 0.38 11 -2 11 C-3.15717541 6.94988606 -2.88174925 4.76349849 -1 1 C-0.67 0.67 -0.34 0.34 0 0 Z " fill="#203F3C" transform="translate(14,22)"/>
<path d="M0 0 C1.99954746 -0.04254356 4.00041636 -0.04080783 6 0 C7 1 7 1 7.125 3.5 C7 6 7 6 6 7 C6.66 7.33 7.32 7.66 8 8 C8 8.66 8 9.32 8 10 C4.7 10 1.4 10 -2 10 C-2.33 11.32 -2.66 12.64 -3 14 C-4.65 13.67 -6.3 13.34 -8 13 C-8.625 10.625 -8.625 10.625 -9 8 C-7 6 -7 6 -4.5 5.8125 C-2 6 -2 6 0 7 C0 6.01 0 5.02 0 4 C-5.94 4 -11.88 4 -18 4 C-14.31912647 1.54608431 -11.55644412 1.77197241 -7.3125 1.875 C-6.2596582 1.88853516 -6.2596582 1.88853516 -5.18554688 1.90234375 C-3.45688475 1.92586296 -1.72839855 1.96173287 0 2 C0 1.34 0 0.68 0 0 Z " fill="#254B47" transform="translate(34,0)"/>
<path d="M0 0 C2.46800047 1.15173355 4.04783565 2.04783565 6 4 C7.32 4 8.64 4 10 4 C14.70392214 10.32089537 15.0597832 16.27496877 14 24 C12.65509339 28.17898317 10.97612133 32.08304522 9 36 C7.68 35.67 6.36 35.34 5 35 C5.38414063 33.865625 5.76828125 32.73125 6.1640625 31.5625 C6.65212023 30.04201245 7.13903906 28.521159 7.625 27 C7.88023438 26.25621094 8.13546875 25.51242188 8.3984375 24.74609375 C10.1750223 19.07089232 10.07202546 15.60804611 8 10 C6.40381033 7.5273048 6.40381033 7.5273048 4.4375 5.625 C1.03913043 2.07826087 1.03913043 2.07826087 0 0 Z " fill="#7F4537" transform="translate(83,84)"/>
<path d="M0 0 C2 2 2 2 2.125 4.625 C2.08375 5.40875 2.0425 6.1925 2 7 C1.34 7 0.68 7 0 7 C-0.33 8.32 -0.66 9.64 -1 11 C-2.98 11.33 -4.96 11.66 -7 12 C-7 11.34 -7 10.68 -7 10 C-6.01 9.67 -5.02 9.34 -4 9 C-6.31 8.67 -8.62 8.34 -11 8 C-11 8.99 -11 9.98 -11 11 C-12.9375 10.1875 -12.9375 10.1875 -15 9 C-15.33 8.01 -15.66 7.02 -16 6 C-15.01 6 -14.02 6 -13 6 C-12.731875 5.38125 -12.46375 4.7625 -12.1875 4.125 C-9.28552955 -1.06799976 -5.21593249 -0.33117032 0 0 Z M-10 5 C-7.36 5 -4.72 5 -2 5 C-5.96979568 2.35346955 -6.03020432 2.35346955 -10 5 Z " fill="#4D2A22" transform="translate(83,38)"/>
<path d="M0 0 C0.07476562 1.01578125 0.14953125 2.0315625 0.2265625 3.078125 C1.1055735 12.87861998 2.71101568 22.71101568 10 30 C10 30.99 10 31.98 10 33 C5.19739413 31.0433828 2.06301636 27.71601212 -0.640625 23.3515625 C-2.30843517 19.23954776 -2.34176068 15.99967467 -2.1875 11.625 C-2.17396484 10.88894531 -2.16042969 10.15289062 -2.14648438 9.39453125 C-2.11144869 7.59603257 -2.05765288 5.79791578 -2 4 C-3.32 4.33 -4.64 4.66 -6 5 C-1.125 0 -1.125 0 0 0 Z " fill="#81483A" transform="translate(62,36)"/>
<path d="M0 0 C0.66 0.33 1.32 0.66 2 1 C2.128314 7.54401408 2.128314 7.54401408 1.30859375 10.45703125 C0.7426135 13.0559737 0.7426135 13.0559737 2.25 15.28125 C2.8275 16.0134375 3.405 16.745625 4 17.5 C7.06849315 21.39041096 7.06849315 21.39041096 6.6875 24.78125 C6.460625 25.5134375 6.23375 26.245625 6 27 C5.01 27 4.02 27 3 27 C2.90976563 26.4534375 2.81953125 25.906875 2.7265625 25.34375 C1.4770597 21.31309581 -1.21059006 18.09622616 -3.6015625 14.65625 C-5 12 -5 12 -4.78125 9.7890625 C-4 8 -4 8 -2.875 5.875 C-2.58625 5.25625 -2.2975 4.6375 -2 4 C-2.33 3.34 -2.66 2.68 -3 2 C-2.01 2 -1.02 2 0 2 C0 1.34 0 0.68 0 0 Z " fill="#A15A48" transform="translate(92,34)"/>
<path d="M0 0 C2.64 0 5.28 0 8 0 C8 0.33 8 0.66 8 1 C5.69 1 3.38 1 1 1 C1 1.66 1 2.32 1 3 C3.31 3 5.62 3 8 3 C8 3.33 8 3.66 8 4 C5.69 4 3.38 4 1 4 C1 4.99 1 5.98 1 7 C1.763125 7.0825 2.52625 7.165 3.3125 7.25 C6 8 6 8 7.8125 9.875 C9 12 9 12 9 15 C7.68 15 6.36 15 5 15 C4.34 14.01 3.68 13.02 3 12 C-0.44452789 10.52377376 -3.41545825 11.26679828 -7 12 C-7 10.68 -7 9.36 -7 8 C-6.01 7.67 -5.02 7.34 -4 7 C-3.67 6.01 -3.34 5.02 -3 4 C-2.01 4 -1.02 4 0 4 C0 2.68 0 1.36 0 0 Z " fill="#162C2A" transform="translate(32,16)"/>
<path d="M0 0 C0.33 0 0.66 0 1 0 C0.95617187 0.59167969 0.91234375 1.18335937 0.8671875 1.79296875 C0.8759907 4.49114892 1.04683316 6.46389538 2 9 C5.0895886 11.31719145 8.43217776 12.58085026 12 14 C12.99 14.66 13.98 15.32 15 16 C14.34 16 13.68 16 13 16 C13 16.66 13 17.32 13 18 C14.65 18.33 16.3 18.66 18 19 C14.3817495 20.318017 12.42284315 19.67521057 8.9375 18.1875 C7.65166016 17.65189453 7.65166016 17.65189453 6.33984375 17.10546875 C4 16 4 16 1 14 C1 16.64 1 19.28 1 22 C-0.32 22 -1.64 22 -3 22 C-3 18.04 -3 14.08 -3 10 C-2.67 10 -2.34 10 -2 10 C-2 13.63 -2 17.26 -2 21 C-1.34 21 -0.68 21 0 21 C-0.08378906 20.154375 -0.16757812 19.30875 -0.25390625 18.4375 C-0.82515187 12.07425763 -1.11150236 6.29851338 0 0 Z " fill="#7E4639" transform="translate(31,89)"/>
<path d="M0 0 C-0.39848288 3.9051322 -0.98900565 7.25664013 -2.625 10.8125 C-3.07875 11.864375 -3.5325 12.91625 -4 14 C-3.67 14.66 -3.34 15.32 -3 16 C-3.99 16 -4.98 16 -6 16 C-6 16.66 -6 17.32 -6 18 C-3.03 18 -0.06 18 3 18 C-1.18075081 20.0903754 -1.58813263 20.22667078 -5.75 19.125 C-6.54921875 18.92132813 -7.3484375 18.71765625 -8.171875 18.5078125 C-8.77515625 18.34023437 -9.3784375 18.17265625 -10 18 C-10.578125 16.08203125 -10.578125 16.08203125 -11 14 C-10.0246803 12.97591432 -9.01801357 11.98165594 -8 11 C-7.525625 9.865625 -7.05125 8.73125 -6.5625 7.5625 C-3.24561404 0 -3.24561404 0 0 0 Z " fill="#7E4335" transform="translate(74,69)"/>
<path d="M0 0 C0.66 0.33 1.32 0.66 2 1 C1.34 1.66 0.68 2.32 0 3 C0 4.32 0 5.64 0 7 C-1.61294684 9.06226774 -3.18760572 10.88372373 -5 12.75 C-5.47695312 13.25660156 -5.95390625 13.76320313 -6.4453125 14.28515625 C-7.62139874 15.53180766 -8.80956174 16.76704609 -10 18 C-11.32 17.34 -12.64 16.68 -14 16 C-12.2308289 13.89441606 -10.4597399 11.79049842 -8.6875 9.6875 C-8.18798828 9.09259766 -7.68847656 8.49769531 -7.17382812 7.88476562 C-6.44389648 7.01948242 -6.44389648 7.01948242 -5.69921875 6.13671875 C-5.25408936 5.60780029 -4.80895996 5.07888184 -4.3503418 4.53393555 C-2.96013395 2.95471373 -1.50273504 1.47187013 0 0 Z " fill="#98503F" transform="translate(73,20)"/>
<path d="M0 0 C0.99 0 1.98 0 3 0 C3 8.58 3 17.16 3 26 C2.34 26 1.68 26 1 26 C-0.30475618 23.39048764 -0.11301572 21.47298715 -0.09765625 18.5546875 C-0.09443359 17.47832031 -0.09121094 16.40195313 -0.08789062 15.29296875 C-0.07951172 14.16503906 -0.07113281 13.03710938 -0.0625 11.875 C-0.05798828 10.73933594 -0.05347656 9.60367188 -0.04882812 8.43359375 C-0.03701615 5.62234362 -0.02054507 2.8111977 0 0 Z " fill="#376F6A" transform="translate(116,68)"/>
<path d="M0 0 C0.33 0.99 0.66 1.98 1 3 C-0.98 3.66 -2.96 4.32 -5 5 C-4.79503906 5.59167969 -4.59007812 6.18335937 -4.37890625 6.79296875 C-1.43194601 15.43644544 -1.43194601 15.43644544 -1 19 C-1.33 19.66 -1.66 20.32 -2 21 C-5.54628896 15.45752952 -8.59441952 10.46567022 -10 4 C-8.71086513 3.32845067 -7.41859796 2.66291141 -6.125 2 C-5.40570312 1.62875 -4.68640625 1.2575 -3.9453125 0.875 C-2 0 -2 0 0 0 Z " fill="#A85B48" transform="translate(20,69)"/>
<path d="M0 0 C0.33 0.99 0.66 1.98 1 3 C0.67 3.66 0.34 4.32 0 5 C-0.2275015 6.87056791 -0.40962811 8.74685958 -0.5625 10.625 C-0.64628906 11.62789062 -0.73007813 12.63078125 -0.81640625 13.6640625 C-0.87699219 14.43492188 -0.93757813 15.20578125 -1 16 C-3.31 16 -5.62 16 -8 16 C-8 15.01 -8 14.02 -8 13 C-6.68 13 -5.36 13 -4 13 C-4.33 10.03 -4.66 7.06 -5 4 C-7.31 4 -9.62 4 -12 4 C-9.08493545 2.05662363 -8.17028308 1.72325333 -4.875 1.4375 C-1.22536034 1.43313101 -1.22536034 1.43313101 0 0 Z " fill="#B05F4C" transform="translate(95,58)"/>
<path d="M0 0 C-0.66 0 -1.32 0 -2 0 C-1.67 0.598125 -1.34 1.19625 -1 1.8125 C0 4 0 4 0 7 C0.99 6.34 1.98 5.68 3 5 C2.690625 5.7425 2.38125 6.485 2.0625 7.25 C0.95577631 9.85159414 0.95577631 9.85159414 0.625 12.125 C0 14 0 14 -1.6875 15.875 C-4 17 -4 17 -7.1875 16.375 C-8.115625 15.92125 -9.04375 15.4675 -10 15 C-10.33 14.01 -10.66 13.02 -11 12 C-10.01 12 -9.02 12 -8 12 C-8.33 12.66 -8.66 13.32 -9 14 C-5.86615486 12.49540371 -5.86615486 12.49540371 -3 10 C-2.49874717 6.33142278 -2.49874717 6.33142278 -3 3 C-3.99 3.66 -4.98 4.32 -6 5 C-6 3.35 -6 1.7 -6 0 C-3 -1 -3 -1 0 0 Z " fill="#1B3836" transform="translate(28,31)"/>
<path d="M0 0 C3 0.25 3 0.25 5 2.25 C5.125 5.375 5.125 5.375 5 8.25 C3.25 9.375 3.25 9.375 1 10.25 C-1.0625 9.4375 -1.0625 9.4375 -3 8.25 C-3.99 7.92 -4.98 7.59 -6 7.25 C-4.92 0.41 -4.92 0.41 0 0 Z M-2 3.25 C-2 4.57 -2 5.89 -2 7.25 C-1.01 6.92 -0.02 6.59 1 6.25 C0.67 5.26 0.34 4.27 0 3.25 C-0.66 3.25 -1.32 3.25 -2 3.25 Z " fill="#D3755E" transform="translate(31,78.75)"/>
<path d="M0 0 C6.75135116 -0.3971383 10.48408661 0.09027857 15.8125 4.5 C17 6 17 6 17 9 C15.02 9.33 13.04 9.66 11 10 C10.71125 9.195625 10.4225 8.39125 10.125 7.5625 C9.26737432 4.8673532 9.26737432 4.8673532 7 4 C7 3.34 7 2.68 7 2 C4.36 2 1.72 2 -1 2 C-0.67 1.34 -0.34 0.68 0 0 Z " fill="#32615D" transform="translate(45,5)"/>
<path d="M0 0 C0.66 0.33 1.32 0.66 2 1 C1.67 1.33 1.34 1.66 1 2 C1.99 2.33 2.98 2.66 4 3 C3.67 4.32 3.34 5.64 3 7 C3 6.01 3 5.02 3 4 C2.34 4 1.68 4 1 4 C1.020625 4.7425 1.04125 5.485 1.0625 6.25 C1.00671312 8.70462279 0.6930096 10.66109261 0 13 C-1.5 11.8125 -1.5 11.8125 -3 10 C-3.27570202 7.17405433 -3.27433584 5.54867169 -2 3 C-2.99 3.66 -3.98 4.32 -5 5 C-5.2502157 8.08365871 -5.2502157 8.08365871 -5 11 C-5.33 9.68 -5.66 8.36 -6 7 C-7.65 7 -9.3 7 -11 7 C-9.68 6.67 -8.36 6.34 -7 6 C-7 5.34 -7 4.68 -7 4 C-8.98 4 -10.96 4 -13 4 C-13 3.67 -13 3.34 -13 3 C-12.31292969 2.86722656 -11.62585938 2.73445313 -10.91796875 2.59765625 C-9.56638672 2.33275391 -9.56638672 2.33275391 -8.1875 2.0625 C-6.84751953 1.80146484 -6.84751953 1.80146484 -5.48046875 1.53515625 C-2.88602829 1.02258847 -2.88602829 1.02258847 0 0 Z " fill="#6B392D" transform="translate(43,46)"/>
<path d="M0 0 C8.88528458 -0.6104394 8.88528458 -0.6104394 12.625 1.4375 C14.66352574 5.23657069 14.32478029 8.77785621 14 13 C13.01 13.495 13.01 13.495 12 14 C12 11.69 12 9.38 12 7 C11.34 7 10.68 7 10 7 C8.375 5.625 8.375 5.625 7 4 C7 3.34 7 2.68 7 2 C4.69 2 2.38 2 0 2 C0 1.34 0 0.68 0 0 Z " fill="#2C5854" transform="translate(33,17)"/>
<path d="M0 0 C0.80050781 0.20882813 1.60101563 0.41765625 2.42578125 0.6328125 C3.23402344 0.83648437 4.04226562 1.04015625 4.875 1.25 C5.48988281 1.41757813 6.10476562 1.58515625 6.73828125 1.7578125 C6.73828125 2.4178125 6.73828125 3.0778125 6.73828125 3.7578125 C4.75828125 4.7478125 4.75828125 4.7478125 2.73828125 5.7578125 C3.06828125 6.7478125 3.39828125 7.7378125 3.73828125 8.7578125 C2.74828125 8.7578125 1.75828125 8.7578125 0.73828125 8.7578125 C0.73828125 8.0978125 0.73828125 7.4378125 0.73828125 6.7578125 C0.07828125 6.7578125 -0.58171875 6.7578125 -1.26171875 6.7578125 C-1.59171875 7.7478125 -1.92171875 8.7378125 -2.26171875 9.7578125 C-2.26171875 8.4378125 -2.26171875 7.1178125 -2.26171875 5.7578125 C-5.89171875 6.0878125 -9.52171875 6.4178125 -13.26171875 6.7578125 C-13.26171875 6.0978125 -13.26171875 5.4378125 -13.26171875 4.7578125 C-9.96171875 4.7578125 -6.66171875 4.7578125 -3.26171875 4.7578125 C-3.26171875 4.0978125 -3.26171875 3.4378125 -3.26171875 2.7578125 C-3.92171875 2.4278125 -4.58171875 2.0978125 -5.26171875 1.7578125 C-2.26171875 -0.2421875 -2.26171875 -0.2421875 0 0 Z " fill="#244F4B" transform="translate(45.26171875,5.2421875)"/>
<path d="M0 0 C6.6 0 13.2 0 20 0 C20 0.99 20 1.98 20 3 C13.4 3 6.8 3 0 3 C0 2.01 0 1.02 0 0 Z " fill="#B76551" transform="translate(61,0)"/>
<path d="M0 0 C0.66 0 1.32 0 2 0 C2.93619813 3.15506142 3.1057123 5.96586502 3.0625 9.25 C3.05347656 10.14203125 3.04445313 11.0340625 3.03515625 11.953125 C3.02355469 12.62859375 3.01195313 13.3040625 3 14 C0 15 0 15 -1.80932617 14.19555664 C-2.46392822 13.77137451 -3.11853027 13.34719238 -3.79296875 12.91015625 C-4.50517578 12.45576172 -5.21738281 12.00136719 -5.95117188 11.53320312 C-6.68916016 11.04787109 -7.42714844 10.56253906 -8.1875 10.0625 C-8.93708984 9.58103516 -9.68667969 9.09957031 -10.45898438 8.60351562 C-12.3121064 7.4113798 -14.15853466 6.21003348 -16 5 C-15.34 4.67 -14.68 4.34 -14 4 C-11.38211357 5.40895236 -8.88954328 6.86243091 -6.375 8.4375 C-5.66859375 8.87126953 -4.9621875 9.30503906 -4.234375 9.75195312 C-2.48516432 10.82748132 -0.74200346 11.91283725 1 13 C0.84402344 12.31292969 0.68804687 11.62585938 0.52734375 10.91796875 C0.33269531 10.01691406 0.13804688 9.11585937 -0.0625 8.1875 C-0.25972656 7.29417969 -0.45695312 6.40085937 -0.66015625 5.48046875 C-1 3 -1 3 0 0 Z " fill="#3E231D" transform="translate(79,94)"/>
<path d="M0 0 C2.58656673 0.22288501 5.15952778 0.41314385 7.75 0.5625 C8.44738281 0.60568359 9.14476563 0.64886719 9.86328125 0.69335938 C11.57531922 0.79889596 13.28763561 0.8998991 15 1 C15 1.33 15 1.66 15 2 C13.60587891 2.05607422 13.60587891 2.05607422 12.18359375 2.11328125 C2.70560517 2.61618276 2.70560517 2.61618276 -6 6 C-6.99 6.495 -6.99 6.495 -8 7 C-8.33 6.34 -8.66 5.68 -9 5 C-9.99 5.495 -9.99 5.495 -11 6 C-8.92417901 0.52738104 -5.49810539 -1.44394687 0 0 Z " fill="#214744" transform="translate(19,3)"/>
<path d="M0 0 C0.53109375 0.3609375 1.0621875 0.721875 1.609375 1.09375 C2.66898437 1.78984375 2.66898437 1.78984375 3.75 2.5 C4.44609375 2.9640625 5.1421875 3.428125 5.859375 3.90625 C8.19301806 5.30333102 8.19301806 5.30333102 12 5 C12 6.98 12 8.96 12 11 C8.30123909 9.62712658 5.0485524 7.93644547 1.6875 5.875 C0.80449219 5.33617188 -0.07851562 4.79734375 -0.98828125 4.2421875 C-1.65214844 3.83226563 -2.31601563 3.42234375 -3 3 C-2.01 2.01 -1.02 1.02 0 0 Z " fill="#AA604E" transform="translate(68,96)"/>
<path d="M0 0 C1.65 0 3.3 0 5 0 C5.66 1.98 6.32 3.96 7 6 C9.64 6.33 12.28 6.66 15 7 C15 9.31 15 11.62 15 14 C14.67 14 14.34 14 14 14 C14 12.02 14 10.04 14 8 C13.14728516 8.03480469 13.14728516 8.03480469 12.27734375 8.0703125 C7.07441352 8.19191688 2.92687757 7.67723492 -2 6 C-2 4.68 -2 3.36 -2 2 C-1.34 2 -0.68 2 0 2 C0 2.66 0 3.32 0 4 C0.99 4 1.98 4 3 4 C2.01 2.68 1.02 1.36 0 0 Z " fill="#31605C" transform="translate(46,10)"/>
<path d="M0 0 C0.99 0 1.98 0 3 0 C3.33 1.98 3.66 3.96 4 6 C3.67 5.34 3.34 4.68 3 4 C2.01 4 1.02 4 0 4 C0 5.98 0 7.96 0 10 C0.99 10.33 1.98 10.66 3 11 C1.68 11 0.36 11 -1 11 C-1.33 10.34 -1.66 9.68 -2 9 C-4.02463255 8.34786708 -4.02463255 8.34786708 -6 8 C-5.67 6.35 -5.34 4.7 -5 3 C-4.01 3 -3.02 3 -2 3 C-1.34 2.01 -0.68 1.02 0 0 Z " fill="#152B2A" transform="translate(99,76)"/>
<path d="M0 0 C4.21912747 0.4794463 6.79663178 1.16625119 10 4 C9.67 6.64 9.34 9.28 9 12 C8.7525 11.401875 8.505 10.80375 8.25 10.1875 C6.77142054 7.59998595 5.51869569 6.58712331 3 5 C0.19735581 4.21736061 0.19735581 4.21736061 -2.75 3.8125 C-4.22726563 3.57466797 -4.22726563 3.57466797 -5.734375 3.33203125 C-6.48203125 3.22246094 -7.2296875 3.11289063 -8 3 C-8 2.67 -8 2.34 -8 2 C-5.36 2 -2.72 2 0 2 C0 1.34 0 0.68 0 0 Z " fill="#693A2E" transform="translate(81,1)"/>
<path d="M0 0 C4.95 0 9.9 0 15 0 C15 1.65 15 3.3 15 5 C13.02 5.33 11.04 5.66 9 6 C9 5.34 9 4.68 9 4 C9.99 3.67 10.98 3.34 12 3 C9.69 2.67 7.38 2.34 5 2 C5 2.99 5 3.98 5 5 C3.0625 4.1875 3.0625 4.1875 1 3 C0.67 2.01 0.34 1.02 0 0 Z " fill="#85483A" transform="translate(67,44)"/>
<path d="M0 0 C0.66 0.33 1.32 0.66 2 1 C2.3125 4.25 2.3125 4.25 2 8 C-0.375 10.4375 -0.375 10.4375 -3 12 C-3.66 12 -4.32 12 -5 12 C-4.67 11.01 -4.34 10.02 -4 9 C-3.34 9 -2.68 9 -2 9 C-2 8.34 -2 7.68 -2 7 C-3.65 7 -5.3 7 -7 7 C-7.33 5.68 -7.66 4.36 -8 3 C-5.03 3.495 -5.03 3.495 -2 4 C-1.34 2.68 -0.68 1.36 0 0 Z " fill="#356A65" transform="translate(24,33)"/>
<path d="M0 0 C0.99 0.33 1.98 0.66 3 1 C3 2.98 3 4.96 3 7 C4.65 7 6.3 7 8 7 C8 7.33 8 7.66 8 8 C1.67370431 8.90375653 -3.67370431 8.90375653 -10 8 C-7.88861114 6.89129999 -6.24896009 6.03661178 -3.875 5.6875 C-1.6997849 5.13556488 -1.6997849 5.13556488 -0.75 2.4375 C-0.37875 1.2309375 -0.37875 1.2309375 0 0 Z " fill="#30605B" transform="translate(19,10)"/>
<path d="M0 0 C3.96 0 7.92 0 12 0 C12 0.66 12 1.32 12 2 C10.68 2 9.36 2 8 2 C7.67 4.31 7.34 6.62 7 9 C6.01 9 5.02 9 4 9 C4.33 7.02 4.66 5.04 5 3 C2.36 3 -0.28 3 -3 3 C-2.01 2.67 -1.02 2.34 0 2 C0 1.34 0 0.68 0 0 Z " fill="#D07059" transform="translate(24,50)"/>
<path d="M0 0 C1.32 0 2.64 0 4 0 C4 3.96 4 7.92 4 12 C2.68 12 1.36 12 0 12 C0 8.04 0 4.08 0 0 Z " fill="#29534F" transform="translate(121,79)"/>
<path d="M0 0 C0.33 5.94 0.66 11.88 1 18 C0.34 18.33 -0.32 18.66 -1 19 C-2.09506492 15.71480525 -2.09960608 13.26336585 -2.0625 9.8125 C-2.05347656 8.72582031 -2.04445312 7.63914062 -2.03515625 6.51953125 C-2.02355469 5.68808594 -2.01195312 4.85664062 -2 4 C-3.32 4.33 -4.64 4.66 -6 5 C-1.125 0 -1.125 0 0 0 Z " fill="#CB7059" transform="translate(62,36)"/>
<path d="M0 0 C1.67542976 0.28604898 3.34385343 0.61781233 5 1 C5 1.33 5 1.66 5 2 C6.918125 2.309375 6.918125 2.309375 8.875 2.625 C9.59429687 2.74101562 10.31359375 2.85703125 11.0546875 2.9765625 C12.01761719 2.98816406 12.01761719 2.98816406 13 3 C13.66 2.34 14.32 1.68 15 1 C17.625 0.875 17.625 0.875 20 1 C19.67 2.32 19.34 3.64 19 5 C17.97519531 4.97679687 16.95039063 4.95359375 15.89453125 4.9296875 C14.53386149 4.91091964 13.1731838 4.89272053 11.8125 4.875 C11.13896484 4.85824219 10.46542969 4.84148438 9.77148438 4.82421875 C5.71192193 4.78461326 2.65001185 5.19979998 -1 7 C-1.04254356 5.00045254 -1.04080783 2.99958364 -1 1 C-0.67 0.67 -0.34 0.34 0 0 Z " fill="#1F413E" transform="translate(8,15)"/>
<path d="M0 0 C0 0.66 0 1.32 0 2 C-1.98 2.33 -3.96 2.66 -6 3 C-6 3.66 -6 4.32 -6 5 C-8.31 6.32 -10.62 7.64 -13 9 C-13.66 8.34 -14.32 7.68 -15 7 C-10.73128676 0.99218137 -7.29107273 -0.33911966 0 0 Z " fill="#904C3C" transform="translate(87,16)"/>
<path d="M0 0 C0.75732422 0.00644531 1.51464844 0.01289063 2.29492188 0.01953125 C3.08060547 0.03628906 3.86628906 0.05304687 4.67578125 0.0703125 C5.47306641 0.07933594 6.27035156 0.08835938 7.09179688 0.09765625 C9.05742025 0.12119665 11.022889 0.15706703 12.98828125 0.1953125 C12.98828125 0.8553125 12.98828125 1.5153125 12.98828125 2.1953125 C13.97828125 2.1953125 14.96828125 2.1953125 15.98828125 2.1953125 C15.98828125 2.8553125 15.98828125 3.5153125 15.98828125 4.1953125 C15.03888672 3.96521484 15.03888672 3.96521484 14.0703125 3.73046875 C9.94801276 3.01468286 5.85061618 2.83381087 1.67578125 2.6328125 C0.83982422 2.58962891 0.00386719 2.54644531 -0.85742188 2.50195312 C-2.9086881 2.39645943 -4.96018355 2.29543935 -7.01171875 2.1953125 C-3.96490814 0.16410543 -3.41053551 -0.05128625 0 0 Z " fill="#3A746F" transform="translate(23.01171875,1.8046875)"/>
<path d="M0 0 C0.66 0 1.32 0 2 0 C2 0.66 2 1.32 2 2 C2.66 2.33 3.32 2.66 4 3 C2.35 4.98 0.7 6.96 -1 9 C-1.66 8.34 -2.32 7.68 -3 7 C-3.99 7.99 -4.98 8.98 -6 10 C-7.4606285 7.35261084 -8 6.10551666 -8 3 C-6.68 3.99 -5.36 4.98 -4 6 C-3.71125 5.38125 -3.4225 4.7625 -3.125 4.125 C-2 2 -2 2 0 0 Z " fill="#7C4134" transform="translate(76,63)"/>
<path d="M0 0 C0 0.66 0 1.32 0 2 C2.31 2 4.62 2 7 2 C7 2.33 7 2.66 7 3 C6.39671875 3.10957031 5.7934375 3.21914062 5.171875 3.33203125 C-0.93684987 4.50797128 -0.93684987 4.50797128 -6 8 C-6 7.34 -6 6.68 -6 6 C-6.66 6 -7.32 6 -8 6 C-6.24081631 1.94034532 -4.71412298 0 0 0 Z " fill="#824636" transform="translate(87,72)"/>
<path d="M0 0 C0 0.99 0 1.98 0 3 C0.24666396 6.56007221 0.24666396 6.56007221 1 10 C1.99 10.66 2.98 11.32 4 12 C4 12.66 4 13.32 4 14 C1.03 13.505 1.03 13.505 -2 13 C-2.36237263 11.37681021 -2.71465157 9.7513642 -3.0625 8.125 C-3.25972656 7.22007813 -3.45695312 6.31515625 -3.66015625 5.3828125 C-4 3 -4 3 -3 1 C-2.01 0.67 -1.02 0.34 0 0 Z " fill="#C86E58" transform="translate(41,48)"/>
<path d="M0 0 C0.33 0.99 0.66 1.98 1 3 C0.01 3.66 -0.98 4.32 -2 5 C-2 5.66 -2 6.32 -2 7 C-0.35 7 1.3 7 3 7 C3 7.66 3 8.32 3 9 C-3.75 7.375 -3.75 7.375 -6 4 C-8.55183404 2.79549696 -8.55183404 2.79549696 -11 2 C-11 1.67 -11 1.34 -11 1 C-10.28972656 1.01160156 -9.57945313 1.02320313 -8.84765625 1.03515625 C-7.92855469 1.04417969 -7.00945313 1.05320313 -6.0625 1.0625 C-4.68771484 1.07990234 -4.68771484 1.07990234 -3.28515625 1.09765625 C-1.03406673 1.25949049 -1.03406673 1.25949049 0 0 Z " fill="#1D3E3B" transform="translate(19,33)"/>
<path d="M0 0 C0.66 0 1.32 0 2 0 C2 0.66 2 1.32 2 2 C2.804375 2.0928125 2.804375 2.0928125 3.625 2.1875 C7.11156962 3.38027382 9.24940393 5.56197166 12 8 C11.01 9.485 11.01 9.485 10 11 C9.52949219 10.57847656 9.05898437 10.15695313 8.57421875 9.72265625 C7.95160156 9.17480469 7.32898438 8.62695312 6.6875 8.0625 C6.07261719 7.51722656 5.45773438 6.97195312 4.82421875 6.41015625 C2.94758042 4.79918441 2.94758042 4.79918441 0 4 C0 2.68 0 1.36 0 0 Z " fill="#BF6C57" transform="translate(79,78)"/>
<path d="M0 0 C-0.50797009 4.3177458 -1.19682779 8.03302114 -3 12 C-4.32 11.67 -5.64 11.34 -7 11 C-4.46153846 0 -4.46153846 0 0 0 Z " fill="#8B4A3A" transform="translate(74,69)"/>
<path d="M0 0 C0.66 0.33 1.32 0.66 2 1 C1.67 1.66 1.34 2.32 1 3 C1.66 3 2.32 3 3 3 C3 6.96 3 10.92 3 15 C2.67 15 2.34 15 2 15 C1.67 12.36 1.34 9.72 1 7 C-1.31 6.67 -3.62 6.34 -6 6 C-4 4 -2 2 0 0 Z " fill="#733D30" transform="translate(57,37)"/>
<path d="M0 0 C0.33 0 0.66 0 1 0 C1.144375 0.94875 1.28875 1.8975 1.4375 2.875 C1.82935399 5.8934494 1.82935399 5.8934494 3 8 C1.68 9.65 0.36 11.3 -1 13 C-1.99 12.67 -2.98 12.34 -4 12 C-3.67 11.34 -3.34 10.68 -3 10 C-3.66 9.67 -4.32 9.34 -5 9 C-4.01 8.34 -3.02 7.68 -2 7 C-0.7811879 3.44327821 -0.7811879 3.44327821 0 0 Z " fill="#1C3D3A" transform="translate(44,24)"/>
<path d="M0 0 C1.2065625 0.0309375 1.2065625 0.0309375 2.4375 0.0625 C1.4475 0.5575 1.4475 0.5575 0.4375 1.0625 C1.0975 3.0425 1.7575 5.0225 2.4375 7.0625 C0.625 7.75 0.625 7.75 -1.5625 8.0625 C-3.375 6.875 -3.375 6.875 -4.5625 5.0625 C-4.13825523 1.45641945 -3.76992241 0.09194933 0 0 Z " fill="#244A47" transform="translate(29.5625,5.9375)"/>
<path d="M0 0 C0.66 0.33 1.32 0.66 2 1 C2.36923077 7.4 2.36923077 7.4 0.5 10.4375 C0.005 10.953125 -0.49 11.46875 -1 12 C-1 11.01 -1 10.02 -1 9 C-2.32 9.99 -3.64 10.98 -5 12 C-4.515299 9.73806201 -3.96312408 7.93034549 -2.875 5.875 C-2.58625 5.25625 -2.2975 4.6375 -2 4 C-2.33 3.34 -2.66 2.68 -3 2 C-2.01 2 -1.02 2 0 2 C0 1.34 0 0.68 0 0 Z " fill="#774133" transform="translate(92,34)"/>
<path d="M0 0 C0.66 0 1.32 0 2 0 C3.32229189 2.64458379 3.09677194 4.67761301 3.0625 7.625 C3.05347656 8.62789062 3.04445313 9.63078125 3.03515625 10.6640625 C3.02355469 11.43492188 3.01195313 12.20578125 3 13 C0.69 13 -1.62 13 -4 13 C-4 12.34 -4 11.68 -4 11 C-2.35 11 -0.7 11 1 11 C0.67 7.37 0.34 3.74 0 0 Z " fill="#DF7A61" transform="translate(91,61)"/>
<path d="M0 0 C4.55555556 1.55555556 4.55555556 1.55555556 6 3 C8.32817964 3.36760731 10.6618385 3.70241581 13 4 C12.67 4.66 12.34 5.32 12 6 C10.04081032 5.94008594 8.08248471 5.85132862 6.125 5.75 C5.03445312 5.70359375 3.94390625 5.6571875 2.8203125 5.609375 C0 5 0 5 -1.3828125 2.953125 C-1.58648438 2.30859375 -1.79015625 1.6640625 -2 1 C-1.34 0.67 -0.68 0.34 0 0 Z " fill="#315D59" transform="translate(6,29)"/>
<path d="M0 0 C0.66 0.33 1.32 0.66 2 1 C1.34 1.66 0.68 2.32 0 3 C0 4.32 0 5.64 0 7 C-2 8.75 -2 8.75 -4 10 C-4 9.34 -4 8.68 -4 8 C-4.99 8.33 -5.98 8.66 -7 9 C-5.44499019 5.18315774 -2.96404505 2.80804268 0 0 Z " fill="#773E30" transform="translate(73,20)"/>
<path d="M0 0 C0.33 1.65 0.66 3.3 1 5 C0.34 5 -0.32 5 -1 5 C-1 4.34 -1 3.68 -1 3 C-3.97 3 -6.94 3 -10 3 C-10 2.34 -10 1.68 -10 1 C-6.78548731 -0.60725635 -3.56387464 -0.05748185 0 0 Z " fill="#A75C49" transform="translate(83,38)"/>
<path d="M0 0 C0.66 0 1.32 0 2 0 C2.06058594 0.80824219 2.12117188 1.61648437 2.18359375 2.44921875 C2.26738281 3.51785156 2.35117188 4.58648437 2.4375 5.6875 C2.55931641 7.27111328 2.55931641 7.27111328 2.68359375 8.88671875 C2.96451681 11.65086297 3.40156852 14.28945741 4 17 C2.015625 15.94921875 2.015625 15.94921875 0 14 C-0.390625 10.64453125 -0.390625 10.64453125 -0.25 6.8125 C-0.21390625 5.54019531 -0.1778125 4.26789062 -0.140625 2.95703125 C-0.09421875 1.98121094 -0.0478125 1.00539063 0 0 Z " fill="#E57E65" transform="translate(89,22)"/>
<path d="M0 0 C0.68835937 0.59748047 0.68835937 0.59748047 1.390625 1.20703125 C4.52271585 3.91142062 7.63877459 6.57991771 11 9 C9.54052295 8.93993922 8.08220728 8.8511311 6.625 8.75 C5.40683594 8.68039063 5.40683594 8.68039063 4.1640625 8.609375 C2 8 2 8 0.7109375 6.203125 C0 4 0 4 0 0 Z " fill="#C7705A" transform="translate(45,85)"/>
<path d="M0 0 C2.26273207 3.55818936 2.07331744 6.12547951 1.625 10.25 C1.51414063 11.32765625 1.40328125 12.4053125 1.2890625 13.515625 C1.19367187 14.33546875 1.09828125 15.1553125 1 16 C0.34 15.67 -0.32 15.34 -1 15 C-1.02703381 13.06257659 -1.04641125 11.12504521 -1.0625 9.1875 C-1.07410156 8.10855469 -1.08570313 7.02960938 -1.09765625 5.91796875 C-1 3 -1 3 0 0 Z " fill="#BA6550" transform="translate(44,68)"/>
<path d="M0 0 C0.99 0.33 1.98 0.66 3 1 C2.01 4.3 1.02 7.6 0 11 C-1.32 10.67 -2.64 10.34 -4 10 C-4.33 8.35 -4.66 6.7 -5 5 C-4.67 5.99 -4.34 6.98 -4 8 C-3.34 8 -2.68 8 -2 8 C-2 7.34 -2 6.68 -2 6 C-1.34 6 -0.68 6 0 6 C-0.2784375 4.7934375 -0.2784375 4.7934375 -0.5625 3.5625 C-0.706875 2.716875 -0.85125 1.87125 -1 1 C-0.67 0.67 -0.34 0.34 0 0 Z " fill="#AE604D" transform="translate(47,47)"/>
<path d="M0 0 C0.66 0 1.32 0 2 0 C2 4.29 2 8.58 2 13 C1.34 13 0.68 13 0 13 C-0.33 13.66 -0.66 14.32 -1 15 C-0.67 10.05 -0.34 5.1 0 0 Z " fill="#B76551" transform="translate(95,95)"/>
<path d="M0 0 C2.375 0.3125 2.375 0.3125 5 1 C7 4 7 4 7 7 C5.68 7 4.36 7 3 7 C0 2.92857143 0 2.92857143 0 0 Z " fill="#274A47" transform="translate(34,24)"/>
<path d="M0 0 C0.66 0 1.32 0 2 0 C3.44207941 2.88415883 3.09394887 5.41721528 3.0625 8.625 C3.05347656 9.81351563 3.04445313 11.00203125 3.03515625 12.2265625 C3.02355469 13.14179687 3.01195313 14.05703125 3 15 C0.22957891 12.22957891 0.60203894 10.23466195 0.375 6.375 C0.30023438 5.18648438 0.22546875 3.99796875 0.1484375 2.7734375 C0.09945312 1.85820313 0.05046875 0.94296875 0 0 Z " fill="#C56D57" transform="translate(81,93)"/>
<path d="M0 0 C3.35435922 1.38801071 5.11290303 2.88629 7 6 C7 6.99 7 7.98 7 9 C4.50638429 7.79618552 2.31856917 6.54571278 0 5 C-0.1875 2.375 -0.1875 2.375 0 0 Z " fill="#B16452" transform="translate(65,60)"/>
<path d="M0 0 C1.32 0.66 2.64 1.32 4 2 C3.01 2.495 3.01 2.495 2 3 C2 3.66 2 4.32 2 5 C1.34 5 0.68 5 0 5 C-0.33 5.66 -0.66 6.32 -1 7 C0.65 7 2.3 7 4 7 C2.02 7.99 2.02 7.99 0 9 C-0.99 8.34 -1.98 7.68 -3 7 C-3.375 4.5 -3.375 4.5 -3 2 C-2.01 1.34 -1.02 0.68 0 0 Z " fill="#1B3735" transform="translate(50,22)"/>
<path d="M0 0 C1.31534494 3.65857532 0.65468309 6.08026481 -0.4375 9.75 C-0.86869141 11.22726563 -0.86869141 11.22726563 -1.30859375 12.734375 C-1.53675781 13.48203125 -1.76492187 14.2296875 -2 15 C-2.66 15 -3.32 15 -4 15 C-3.67 11.37 -3.34 7.74 -3 4 C-2.34 4 -1.68 4 -1 4 C-0.67 2.68 -0.34 1.36 0 0 Z " fill="#E1795F" transform="translate(49,57)"/>
<path d="M0 0 C3.96 0.33 7.92 0.66 12 1 C12 1.66 12 2.32 12 3 C8.7 3 5.4 3 2 3 C1.67 3.66 1.34 4.32 1 5 C0.67 3.35 0.34 1.7 0 0 Z " fill="#386F6A" transform="translate(30,7)"/>
<path d="M0 0 C0.99 0 1.98 0 3 0 C4.20272819 2.40545638 4.10071472 3.94996953 4.0625 6.625 C4.05347656 7.44226563 4.04445313 8.25953125 4.03515625 9.1015625 C4.02355469 9.72804688 4.01195312 10.35453125 4 11 C3.01 11.495 3.01 11.495 2 12 C1.34 8.04 0.68 4.08 0 0 Z " fill="#396D68" transform="translate(43,19)"/>
<path d="M0 0 C2.64 0 5.28 0 8 0 C6.68 0.99 5.36 1.98 4 3 C4.33 3.99 4.66 4.98 5 6 C4.01 6 3.02 6 2 6 C2 5.34 2 4.68 2 4 C1.34 4 0.68 4 0 4 C-0.33 4.99 -0.66 5.98 -1 7 C-0.67 4.69 -0.34 2.38 0 0 Z " fill="#142826" transform="translate(44,8)"/>
<path d="M0 0 C0.33 1.32 0.66 2.64 1 4 C-1.475 5.485 -1.475 5.485 -4 7 C-4.33 6.34 -4.66 5.68 -5 5 C-5.99 5.495 -5.99 5.495 -7 6 C-5.52522876 2.59668175 -4.14385429 0 0 0 Z " fill="#1D403C" transform="translate(15,3)"/>
<path d="M0 0 C1.9375 0.3125 1.9375 0.3125 4 1 C4.33 1.99 4.66 2.98 5 4 C5.66 2.68 6.32 1.36 7 0 C7 1.98 7 3.96 7 6 C5.02 6.99 5.02 6.99 3 8 C2.01 7.01 1.02 6.02 0 5 C0.66 4.67 1.32 4.34 2 4 C2 3.34 2 2.68 2 2 C1.34 1.34 0.68 0.68 0 0 Z " fill="#66372C" transform="translate(29,81)"/>
<path d="M0 0 C0.66 0.33 1.32 0.66 2 1 C1.34 1.66 0.68 2.32 0 3 C0.33 3.99 0.66 4.98 1 6 C0.01 6.99 -0.98 7.98 -2 9 C-2.66 8.67 -3.32 8.34 -4 8 C-3.40072174 4.64404172 -2.15377564 2.62198774 0 0 Z " fill="#6C392D" transform="translate(4,61)"/>
<path d="M0 0 C2.9375 0.3125 2.9375 0.3125 4.9375 2.3125 C3.9375 3.3125 3.9375 3.3125 1.65234375 3.41015625 C0.27755859 3.39275391 0.27755859 3.39275391 -1.125 3.375 C-2.04410156 3.36597656 -2.96320313 3.35695312 -3.91015625 3.34765625 C-4.62042969 3.33605469 -5.33070312 3.32445312 -6.0625 3.3125 C-3.89068742 0.85543443 -3.42362209 0.34934919 0 0 Z " fill="#6A3A2F" transform="translate(90.0625,56.6875)"/>
<path d="M0 0 C0 1.98 0 3.96 0 6 C-2.4375 5.1875 -2.4375 5.1875 -5 4 C-5.33 3.01 -5.66 2.02 -6 1 C-3 0 -3 0 0 0 Z " fill="#CE7059" transform="translate(80,101)"/>
<path d="M0 0 C1.875 0.25 1.875 0.25 4 1 C5.72101535 3.58152302 6 4.84918025 6 8 C5.67 8.66 5.34 9.32 5 10 C4.16121545 8.71186658 3.32913217 7.41936744 2.5 6.125 C2.0359375 5.40570313 1.571875 4.68640625 1.09375 3.9453125 C0 2 0 2 0 0 Z " fill="#864A3C" transform="translate(13,80)"/>
<path d="M0 0 C0.66 0 1.32 0 2 0 C1.34 4.29 0.68 8.58 0 13 C-0.99 12.01 -1.98 11.02 -3 10 C-2.01 6.7 -1.02 3.4 0 0 Z " fill="#5C3228" transform="translate(31,55)"/>
<path d="M0 0 C-0.33 1.32 -0.66 2.64 -1 4 C-2.65 4.33 -4.3 4.66 -6 5 C-6.33 4.34 -6.66 3.68 -7 3 C-4.49955934 -0.00052879 -4.2621484 0 0 0 Z " fill="#A45744" transform="translate(20,53)"/>
<path d="M0 0 C0.495 0.309375 0.99 0.61875 1.5 0.9375 C4.97986781 2.41644382 8.24028509 2.62402851 12 3 C12 5.31 12 7.62 12 10 C11.67 10 11.34 10 11 10 C11 8.02 11 6.04 11 4 C10.37351562 4.01160156 9.74703125 4.02320313 9.1015625 4.03515625 C8.28429688 4.04417969 7.46703125 4.05320312 6.625 4.0625 C5.81289063 4.07410156 5.00078125 4.08570313 4.1640625 4.09765625 C2 4 2 4 0 3 C0 2.01 0 1.02 0 0 Z " fill="#3F7973" transform="translate(49,14)"/>
<path d="M0 0 C0.66 0.66 1.32 1.32 2 2 C1.625 4.625 1.625 4.625 1 7 C0.01 7 -0.98 7 -2 7 C-2.33 5.02 -2.66 3.04 -3 1 C-2.01 0.67 -1.02 0.34 0 0 Z " fill="#814638" transform="translate(97,54)"/>
<path d="M0 0 C0.99 0 1.98 0 3 0 C3.08886184 3.19902639 2.91058531 5.92677456 2 9 C0.5 7.8125 0.5 7.8125 -1 6 C-1.25 3.375 -1.25 3.375 -1 1 C-0.67 0.67 -0.34 0.34 0 0 Z " fill="#3A211B" transform="translate(41,50)"/>
<path d="M0 0 C0.99 0 1.98 0 3 0 C3 1.98 3 3.96 3 6 C1.68 5.67 0.36 5.34 -1 5 C-0.67 3.35 -0.34 1.7 0 0 Z " fill="#244744" transform="translate(94,79)"/>
<path d="M0 0 C0.99 0 1.98 0 3 0 C3 1.98 3 3.96 3 6 C1.68 5.67 0.36 5.34 -1 5 C-0.67 3.35 -0.34 1.7 0 0 Z " fill="#254946" transform="translate(122,72)"/>
<path d="M0 0 C0.33 0.99 0.66 1.98 1 3 C1.66 3 2.32 3 3 3 C2.67 2.01 2.34 1.02 2 0 C2.99 0 3.98 0 5 0 C5 0.66 5 1.32 5 2 C5.66 2.33 6.32 2.66 7 3 C6.34 3 5.68 3 5 3 C5 3.66 5 4.32 5 5 C3.35 5 1.7 5 0 5 C0 3.35 0 1.7 0 0 Z " fill="#39746F" transform="translate(49,24)"/>
<path d="M0 0 C0.33 1.32 0.66 2.64 1 4 C0.34 4 -0.32 4 -1 4 C-1.33 4.99 -1.66 5.98 -2 7 C-3.98 6.34 -5.96 5.68 -8 5 C-5.4345406 2.4345406 -3.52313332 2.45953913 0 2 C0 1.34 0 0.68 0 0 Z " fill="#7C4436" transform="translate(89,15)"/>
<path d="M0 0 C0.66 0 1.32 0 2 0 C2.76173392 4.3164922 3.16063604 7.74433453 2 12 C1.67 12 1.34 12 1 12 C0.63597631 10.56496445 0.28413409 9.12683494 -0.0625 7.6875 C-0.25972656 6.88699219 -0.45695312 6.08648437 -0.66015625 5.26171875 C-1 3 -1 3 0 0 Z " fill="#502C24" transform="translate(79,94)"/>
<path d="M0 0 C0.99 0 1.98 0 3 0 C3 0.66 3 1.32 3 2 C5.31 2 7.62 2 10 2 C10 2.33 10 2.66 10 3 C6.7 3.33 3.4 3.66 0 4 C-0.33 3.34 -0.66 2.68 -1 2 C-0.67 1.34 -0.34 0.68 0 0 Z " fill="#8E4C3B" transform="translate(84,72)"/>
<path d="M0 0 C0.33 0 0.66 0 1 0 C0.25 6.75 0.25 6.75 -2 9 C-2.6875 6.75 -2.6875 6.75 -3 4 C-1.625 1.6875 -1.625 1.6875 0 0 Z " fill="#B9634D" transform="translate(73,69)"/>
<path d="M0 0 C1.65 0.33 3.3 0.66 5 1 C5 1.99 5 2.98 5 4 C-1.15234375 3.4140625 -1.15234375 3.4140625 -3 3 C-3.33 2.34 -3.66 1.68 -4 1 C-2.68 1.33 -1.36 1.66 0 2 C0 1.34 0 0.68 0 0 Z " fill="#9C5847" transform="translate(38,102)"/>
<path d="M0 0 C0.99 0 1.98 0 3 0 C4 3 4 3 3 6 C2.01 6 1.02 6 0 6 C0 4.02 0 2.04 0 0 Z " fill="#38726D" transform="translate(99,80)"/>
<path d="M0 0 C0.99 0 1.98 0 3 0 C3 1.65 3 3.3 3 5 C1.68 5 0.36 5 -1 5 C-0.67 3.35 -0.34 1.7 0 0 Z " fill="#B7644F" transform="translate(26,81)"/>
<path d="M0 0 C1.98 0 3.96 0 6 0 C6 0.66 6 1.32 6 2 C3.36 2.66 0.72 3.32 -2 4 C-1.34 2.68 -0.68 1.36 0 0 Z " fill="#A75C4A" transform="translate(81,16)"/>
<path d="M0 0 C2.97 0.495 2.97 0.495 6 1 C6 1.99 6 2.98 6 4 C3.83125748 3.49396008 2.00032373 3.00016187 0 2 C0 1.34 0 0.68 0 0 Z " fill="#35625E" transform="translate(19,27)"/>
<path d="M0 0 C0.66 0 1.32 0 2 0 C2.33 1.32 2.66 2.64 3 4 C0.69 4.33 -1.62 4.66 -4 5 C-4 4.34 -4 3.68 -4 3 C-2.68 3 -1.36 3 0 3 C0 2.01 0 1.02 0 0 Z " fill="#38726D" transform="translate(30,21)"/>
<path d="M0 0 C0.66 0 1.32 0 2 0 C2.33 1.98 2.66 3.96 3 6 C2.01 6.33 1.02 6.66 0 7 C0 4.69 0 2.38 0 0 Z " fill="#346561" transform="translate(4,23)"/>
<path d="M0 0 C1.4606285 2.64738916 2 3.89448334 2 7 C0.68 6.67 -0.64 6.34 -2 6 C-1.34 4.02 -0.68 2.04 0 0 Z " fill="#346863" transform="translate(10,7)"/>
<path d="M0 0 C2.375 -0.1875 2.375 -0.1875 5 0 C5.66 0.99 6.32 1.98 7 3 C3 3 3 3 0 2 C0 1.34 0 0.68 0 0 Z " fill="#BD6C58" transform="translate(82,2)"/>
</svg>
